<mxfile host="app.diagrams.net" agent="Mozilla/5.0 (Windows NT 10.0; Win64; x64) AppleWebKit/537.36 (KHTML, like Gecko) Chrome/133.0.0.0 Safari/537.36" version="26.0.16">
  <diagram name="Página-1" id="zuSFpk4Kl8AvKhp0f8N5">
    <mxGraphModel>
      <root>
        <mxCell id="0" />
        <mxCell id="1" parent="0" />
        <mxCell id="2" value="Aluno" style="shape=umlLifeline;perimeter=lifelinePerimeter;whiteSpace=wrap;container=1;dropTarget=0;collapsible=0;recursiveResize=0;outlineConnect=0;portConstraint=eastwest;newEdgeStyle={&quot;edgeStyle&quot;:&quot;elbowEdgeStyle&quot;,&quot;elbow&quot;:&quot;vertical&quot;,&quot;curved&quot;:0,&quot;rounded&quot;:0};size=65;" vertex="1" parent="1">
          <mxGeometry width="150" height="766" as="geometry" />
        </mxCell>
        <mxCell id="3" value="Sistema" style="shape=umlLifeline;perimeter=lifelinePerimeter;whiteSpace=wrap;container=1;dropTarget=0;collapsible=0;recursiveResize=0;outlineConnect=0;portConstraint=eastwest;newEdgeStyle={&quot;edgeStyle&quot;:&quot;elbowEdgeStyle&quot;,&quot;elbow&quot;:&quot;vertical&quot;,&quot;curved&quot;:0,&quot;rounded&quot;:0};size=65;" vertex="1" parent="1">
          <mxGeometry x="273" width="150" height="766" as="geometry" />
        </mxCell>
        <mxCell id="4" value="Moderador" style="shape=umlLifeline;perimeter=lifelinePerimeter;whiteSpace=wrap;container=1;dropTarget=0;collapsible=0;recursiveResize=0;outlineConnect=0;portConstraint=eastwest;newEdgeStyle={&quot;edgeStyle&quot;:&quot;elbowEdgeStyle&quot;,&quot;elbow&quot;:&quot;vertical&quot;,&quot;curved&quot;:0,&quot;rounded&quot;:0};size=65;" vertex="1" parent="1">
          <mxGeometry x="584" width="150" height="766" as="geometry" />
        </mxCell>
        <mxCell id="5" value="Baixar Arquivo" style="verticalAlign=bottom;edgeStyle=elbowEdgeStyle;elbow=vertical;curved=0;rounded=0;endArrow=block;" edge="1" parent="1" source="2" target="3">
          <mxGeometry relative="1" as="geometry">
            <Array as="points">
              <mxPoint x="220" y="109" />
            </Array>
          </mxGeometry>
        </mxCell>
        <mxCell id="6" value="Verificar se o arquivo foi baixado" style="curved=1;endArrow=block;" edge="1" parent="1" source="3" target="3">
          <mxGeometry relative="1" as="geometry">
            <Array as="points">
              <mxPoint x="399" y="163" />
              <mxPoint x="399" y="193" />
            </Array>
          </mxGeometry>
        </mxCell>
        <mxCell id="7" value="Avaliar Arquivo (1-5 estrelas)" style="verticalAlign=bottom;edgeStyle=elbowEdgeStyle;elbow=vertical;curved=0;rounded=0;endArrow=block;" edge="1" parent="1" source="2" target="3">
          <mxGeometry relative="1" as="geometry">
            <Array as="points">
              <mxPoint x="220" y="247" />
            </Array>
          </mxGeometry>
        </mxCell>
        <mxCell id="8" value="Armazenar Avaliação" style="curved=1;endArrow=block;" edge="1" parent="1" source="3" target="3">
          <mxGeometry relative="1" as="geometry">
            <Array as="points">
              <mxPoint x="399" y="301" />
              <mxPoint x="399" y="331" />
            </Array>
          </mxGeometry>
        </mxCell>
        <mxCell id="9" value="Avaliação disponível para revisão" style="verticalAlign=bottom;edgeStyle=elbowEdgeStyle;elbow=vertical;curved=0;rounded=0;dashed=1;dashPattern=2 3;endArrow=block;" edge="1" parent="1" source="3" target="4">
          <mxGeometry relative="1" as="geometry">
            <Array as="points">
              <mxPoint x="512" y="385" />
            </Array>
          </mxGeometry>
        </mxCell>
        <mxCell id="10" value="Revisar e aprovar/alterar avaliação" style="verticalAlign=bottom;edgeStyle=elbowEdgeStyle;elbow=vertical;curved=0;rounded=0;dashed=1;dashPattern=2 3;endArrow=block;" edge="1" parent="1" source="4" target="3">
          <mxGeometry relative="1" as="geometry">
            <Array as="points">
              <mxPoint x="515" y="439" />
            </Array>
          </mxGeometry>
        </mxCell>
        <mxCell id="11" value="Atualizar Avaliação se necessário" style="curved=1;dashed=1;dashPattern=2 3;endArrow=block;" edge="1" parent="1" source="3" target="3">
          <mxGeometry relative="1" as="geometry">
            <Array as="points">
              <mxPoint x="399" y="493" />
              <mxPoint x="399" y="523" />
            </Array>
          </mxGeometry>
        </mxCell>
        <mxCell id="12" value="Aprovar Avaliação" style="verticalAlign=bottom;edgeStyle=elbowEdgeStyle;elbow=vertical;curved=0;rounded=0;dashed=1;dashPattern=2 3;endArrow=block;" edge="1" parent="1" source="4" target="3">
          <mxGeometry relative="1" as="geometry">
            <Array as="points">
              <mxPoint x="515" y="577" />
            </Array>
          </mxGeometry>
        </mxCell>
        <mxCell id="13" value="Finalizar Processo" style="curved=1;dashed=1;dashPattern=2 3;endArrow=block;" edge="1" parent="1" source="3" target="3">
          <mxGeometry relative="1" as="geometry">
            <Array as="points">
              <mxPoint x="399" y="631" />
              <mxPoint x="399" y="661" />
            </Array>
          </mxGeometry>
        </mxCell>
      </root>
    </mxGraphModel>
  </diagram>
</mxfile>
